<svg width="256" height="256" viewBox="0 0 256 256" fill="none" xmlns="http://www.w3.org/2000/svg">
  <defs>
    <linearGradient id="bubbleGrad" x1="42" y1="34" x2="208" y2="218" gradientUnits="userSpaceOnUse">
      <stop stop-color="#39E07C"/>
      <stop offset="1" stop-color="#09A85E"/>
    </linearGradient>
    <linearGradient id="checkGrad" x1="70" y1="46" x2="205" y2="200" gradientUnits="userSpaceOnUse">
      <stop stop-color="#28B5FF"/>
      <stop offset="1" stop-color="#1779F1"/>
    </linearGradient>
    <filter id="shadow" x="26" y="18" width="204" height="220" filterUnits="userSpaceOnUse" color-interpolation-filters="sRGB">
      <feDropShadow dx="0" dy="12" stdDeviation="12" flood-color="#02131B" flood-opacity="0.28"/>
    </filter>
  </defs>

  <g filter="url(#shadow)">
    <path d="M128 30C83.265 30 47 65.817 47 110C47 135.273 58.852 157.81 77.378 172.476L66.517 207.507C65.151 211.914 69.967 215.65 73.829 213.174L109.58 190.257C115.505 191.402 121.625 192 128 192C172.735 192 209 156.183 209 112C209 67.817 172.735 30 128 30Z" fill="url(#bubbleGrad)"/>
    <path d="M171.495 53.994C177.474 53.994 179.96 61.65 175.144 65.16C144.805 87.274 126.39 117.599 120.673 158.548C119.869 164.303 112.871 166.953 108.35 163.311L77.86 138.75C72.847 134.713 74.682 126.622 80.988 125.154C83.92 124.471 87.074 125.18 89.43 127.109L111.978 145.573C120.255 112.93 139.555 86.265 166.372 55.88C167.691 54.386 169.591 53.994 171.495 53.994Z" fill="url(#checkGrad)"/>
    <path d="M70.123 134.852C67.702 134.852 65.739 132.889 65.739 130.468C65.739 128.046 67.702 126.083 70.123 126.083C72.545 126.083 74.508 128.046 74.508 130.468C74.508 132.889 72.545 134.852 70.123 134.852Z" fill="#091218"/>
    <path d="M171.276 53.495C170.062 53.495 168.849 53.937 167.891 54.821C131.821 88.118 109.77 121.804 101.738 157.357L111.978 145.573C120.255 112.93 139.555 86.265 166.372 55.88C167.691 54.386 169.591 53.994 171.495 53.994C173.441 53.994 174.975 54.803 176.004 56.04C175.622 54.547 173.98 53.495 171.276 53.495Z" fill="#5EE1FF" fill-opacity="0.42"/>
    <path d="M56.532 117.739C56.532 84.365 83.557 57.318 116.893 57.318C145.169 57.318 168.905 76.759 175.406 102.997C176.128 95.755 176.498 88.652 176.498 81.844C176.498 58.662 157.658 39.87 134.417 39.87H121.584C79.183 39.87 44.813 74.28 44.813 116.73C44.813 137.981 53.434 157.217 67.37 171.132C60.463 156.948 56.532 138.896 56.532 117.739Z" fill="#61F0A2" fill-opacity="0.24"/>
  </g>
</svg>
